<svg xmlns="http://www.w3.org/2000/svg" xmlns:xlink="http://www.w3.org/1999/xlink" xmlns:fi="http://pattern.flaticon.com/" x="0" y="0" width="700" height="350" viewBox="0 0 700 350"><rect x="0px" y="0px" width="100%" height="100%" opacity="1" fill="#437aff"/><defs><g transform="matrix(0.1875 0 0 0.1875 141 79)" id="L1_0"><g id="XMLID_935_"><path d="M300,124.677v-20c0-54.872-44.482-99.355-99.355-99.355h-81.289    C64.482,5.323,20,49.805,20,104.677v20H300z" id="XMLID_936_" fill="#ffad41"/><path d="M160,5.323h-40.645C64.482,5.323,20,49.805,20,104.677v20h140V5.323z" id="XMLID_937_" fill="#ff9811"/><circle cx="70" cy="75" r="10" id="XMLID_938_" fill="#804c09"/><circle cx="120" cy="45" r="10" id="XMLID_939_" fill="#804c09"/><circle cx="250" cy="75" r="10" id="XMLID_940_" fill="#bd720d"/><circle cx="200" cy="45" r="10" id="XMLID_941_" fill="#bd720d"/><circle cx="160" cy="75" r="10" id="XMLID_942_" fill="#bd720d"/><path d="M160,65.323c-5.523,0-10,4.477-10,10c0,5.523,4.477,10,10,10" id="XMLID_943_" fill="#804c09"/></g><path d="M270,204.678H50c-16.568,0-30,13.432-30,30s13.432,30,30,30h220   c16.568,0,30-13.432,30-30S286.568,204.678,270,204.678z" id="XMLID_944_" fill="#bd720d"/><path d="M160,204.678H50c-16.568,0-30,13.432-30,30s13.432,30,30,30h110V204.678z" id="XMLID_945_" fill="#804c09"/><path d="M320,284.677c0,16.568-13.432,30-30,30H30c-16.568,0-30-13.432-30-30l0,0   c0-16.568,13.432-30,30-30h260C306.568,254.678,320,268.109,320,284.677L320,284.677z" id="XMLID_946_" fill="#ffad41"/><path d="M160,254.678H30c-16.568,0-30,13.432-30,30s13.432,30,30,30h130V254.678z" id="XMLID_947_" fill="#ff9811"/><g id="XMLID_948_"><path d="M60,214.678 160,204.678 260,214.678 160,264.677z" id="XMLID_949_" fill="#ffe98f"/><path d="M60,214.678 160,204.678 160,264.677z" id="XMLID_950_" fill="#ffda44"/></g><path d="M270,134.678H50c-16.568,0-30,13.432-30,30s13.432,30,30,30h220   c16.568,0,30-13.432,30-30S286.568,134.678,270,134.678z" id="XMLID_951_" fill="#bd720d"/><path d="M160,134.678H50c-16.568,0-30,13.432-30,30s13.432,30,30,30h110V134.678z" id="XMLID_952_" fill="#804c09"/><path d="M320,199.678c0,8.284-6.715,15-15,15H15c-8.283,0-15-6.716-15-15l0,0   c0-8.284,6.717-15,15-15h290C313.285,184.678,320,191.393,320,199.678L320,199.678z" id="XMLID_953_" fill="#ff5023"/><path d="M160,184.678H15c-8.283,0-15,6.716-15,15s6.717,15,15,15h145V184.678z" id="XMLID_954_" fill="#bd3c1a"/><g id="XMLID_955_"><path d="M60,144.678 160,134.678 260,144.678 160,194.678z" id="XMLID_956_" fill="#ffe98f"/><path d="M60,144.678 160,134.678 160,194.678z" id="XMLID_957_" fill="#ffda44"/></g><path d="M320,129.678c0,8.284-6.715,15-15,15H15c-8.283,0-15-6.716-15-15l0,0   c0-8.284,6.717-15,15-15h290C313.285,114.677,320,121.393,320,129.678L320,129.678z" id="XMLID_958_" fill="#91dc5a"/><path d="M160,114.677H15c-8.283,0-15,6.716-15,15s6.717,15,15,15h145V114.677z" id="XMLID_959_" fill="#64c37d"/></g><g transform="matrix(0.1631787270307541 0 0 0.1631787270307541 284 52.999997649525085)" id="L1_1"><path d="M338.181,183.181H29.514L0,212.695c101.536,101.537,266.159,101.536,367.695,0   C358.625,203.625,348.647,193.647,338.181,183.181z" id="XMLID_898_" fill="#ffad41"/><path d="M183.848,288.848c-66.54,0-133.08-25.384-183.848-76.152L183.848,28.848   C183.848,28.848,183.848,194.848,183.848,288.848z" id="XMLID_23_" fill="#ff9811"/><path d="M316.077,161.077H51.619l-23.335,23.335   c39.813,39.812,94.813,64.436,155.564,64.436s115.751-24.624,155.563-64.436C331.849,176.849,316.077,161.077,316.077,161.077z" id="XMLID_899_" fill="#ff5023"/><path d="M183.848,161.077H51.619l-23.335,23.335   c39.813,39.812,94.813,64.436,155.564,64.436C183.848,248.848,183.848,161.077,183.848,161.077z" id="XMLID_900_" fill="#bd3c1a"/><path d="M183.848,28.848L51.619,161.077c16.58,16.58,44.01,18.524,66.011,27.647   c21.223,8.8,41.813,27.124,66.218,27.124s44.996-18.324,66.218-27.124c22.001-9.123,49.431-11.067,66.011-27.647   C253.44,98.44,183.848,28.848,183.848,28.848z" id="XMLID_901_" fill="#ffe98f"/><path d="M51.619,161.077c3.616,3.616,7.75,6.536,12.229,8.986v98.785   c0,11.046,8.955,20,20,20s20-8.954,20-20v-50c0-11.046,8.955-20,20-20s20,8.954,20,20v100c0,11.046,8.955,20,20,20s20-8.954,20-20   v-290L51.619,161.077z" id="XMLID_902_" fill="#ffda44"/><circle cx="128" cy="143" r="25" id="XMLID_903_" fill="#bd3c1a"/><circle cx="238" cy="143" r="25" id="XMLID_904_" fill="#ff5023"/><circle cx="183" cy="93" r="25" id="XMLID_905_" fill="#ff5023"/><path d="M183.848,118.848c-13.807,0-25-11.193-25-25s11.193-25,25-25" id="XMLID_906_" fill="#bd3c1a"/></g><g transform="matrix(0.1818181872367859 0 0 0.1818181872367859 65 139)" id="L1_8"><path d="M200,120V46c0,0-69.667,0.016-70,0.025V120l-39,60v116c0,18.777,15.223,34,34,34   h80c18.777,0,34-15.223,34-34V179L200,120z" id="L1_9" fill="#ff5023"/><path d="M165,46.008c-21.789,0.005-34.816,0.012-35,0.018V120l-39,60v116   c0,18.777,15.223,34,34,34h40V46.008z" id="L1_10" fill="#bd3c1a"/><path d="M215,215c0,0.416-20,75-20,75h-60l-20-75c0,0,12.5-25,50-25S215,214.584,215,215z" id="L1_11" fill="#ffffff"/><path d="M165,190c-37.5,0-50,25-50,25l20,75h30C165,290,165,202.668,165,190z" id="L1_12" fill="#ffe98f"/><rect x="130px" y="0px" width="70px" height="50px" id="L1_13" fill="#dedde0"/><rect x="130px" y="0px" width="35px" height="50px" id="L1_14" fill="#cdcdd0"/><rect x="130px" y="15px" width="70px" height="20px" id="L1_15" fill="#acabb1"/><g id="L1_16"><circle cx="165" cy="84" r="20" id="L1_17" fill="#ffffff"/><path d="M165,104.834c-11.046,0-20-8.955-20-20c0-11.047,8.954-20,20-20" id="L1_18" fill="#ffe98f"/></g></g><g transform="matrix(0.2142857164144516 0 0 0.2142857164144516 183 278)" id="L1_3"><path d="M240,120c0,0-44.772,30-100,30S40,120,40,120c0-55.229,44.771-70,100-70   S240,64.771,240,120z" id="XMLID_961_" fill="#802812"/><path d="M180,40 180,20 140,20 140,0 100,0 100,40 60,40 60,220 100,220 100,180    140,180 140,200 180,200 180,220 220,220 220,40z" id="XMLID_962_" fill="#ffda44"/><rect x="60px" y="40px" width="40px" height="180px" id="XMLID_963_" fill="#ffad41"/><rect x="100px" y="0px" width="40px" height="180px" id="XMLID_964_" fill="#ffda44"/><rect x="140px" y="20px" width="40px" height="180px" id="XMLID_965_" fill="#ffe98f"/><rect x="180px" y="40px" width="40px" height="180px" id="XMLID_966_" fill="#ffda44"/><g id="XMLID_967_"><path d="M203.255,120c-11.235,23.648-35.332,40-63.255,40s-52.02-16.352-63.255-40H40    l20,160h160l20-160H203.255z" id="XMLID_968_" fill="#ff5023"/><path d="M140,160c-27.923,0-52.02-16.352-63.255-40H40l20,160h80    C140,280,140,199.333,140,160z" id="XMLID_969_" fill="#bd3c1a"/></g><ellipse cx="140px" cy="220px" rx="40px" ry="20px" id="XMLID_970_" fill="#ffffff"/><path d="M140,240c-22.091,0-40-8.954-40-20s17.909-20,40-20" id="XMLID_971_" fill="#ffe98f"/></g><g transform="matrix(0.15000000596046448 0 0 0.15000000596046448 64 285)" id="L1_4"><path d="M390,205v-17.311C390,141.961,352.932,105,307.203,105H92.796   C47.068,105,10,141.961,10,187.689V205H390z" id="XMLID_1003_" fill="#ffad41"/><path d="M200,105H92.796C47.068,105,10,141.961,10,187.689V205h190V105z" id="XMLID_1004_" fill="#ff9811"/><path d="M95,105v35c0,8.284,6.716,15,15,15s15-6.716,15-15v-35H95z" id="XMLID_1005_" fill="#bd720d"/><path d="M185,105v35c0,8.284,6.716,15,15,15s15-6.716,15-15v-35H185z" id="XMLID_1006_" fill="#ff9811"/><path d="M185,105v35c0,8.284,6.716,15,15,15s15-6.716,15-15v-35H185z" id="XMLID_1007_" fill="#ff9811"/><path d="M185,105v35c0,8.284,6.716,15,15,15c0-22.333,0-50,0-50H185z" id="XMLID_1008_" fill="#bd720d"/><path d="M275,105v35c0,8.284,6.716,15,15,15s15-6.716,15-15v-35H275z" id="XMLID_1009_" fill="#ff9811"/><g id="XMLID_1010_"><path d="M350,210H50c-16.568,0-30,13.432-30,30s13.432,30,30,30h300    c16.568,0,30-13.432,30-30S366.568,210,350,210z" id="XMLID_1011_" fill="#bd720d"/><path d="M200,210H50c-16.568,0-30,13.432-30,30s13.432,30,30,30h150V210z" id="XMLID_1012_" fill="#804c09"/></g><g id="XMLID_1013_"><path d="M400,275c0,11.045-8.954,20-20,20H20c-11.046,0-20-8.955-20-20l0,0    c0-11.045,8.954-20,20-20h360C391.046,255,400,263.955,400,275L400,275z" id="XMLID_1014_" fill="#ffad41"/><path d="M200,255H20c-11.046,0-20,8.955-20,20s8.954,20,20,20h180V255z" id="XMLID_1015_" fill="#ff9811"/></g><path d="M385,195H200H60H15c-8.283,0-15,6.716-15,15s6.717,15,15,15h45h140h185   c8.285,0,15-6.716,15-15S393.285,195,385,195z" id="XMLID_1016_" fill="#91dc5a"/><path d="M200,195H15c-8.283,0-15,6.716-15,15s6.717,15,15,15h185V195z" id="XMLID_1017_" fill="#64c37d"/><path d="M40,195 110,185 180,195 110,245z" id="XMLID_1019_" fill="#ffda44"/><path d="M220,195 290,185 360,195 290,245z" id="XMLID_1021_" fill="#ffe98f"/><rect x="30px" y="175px" width="160px" height="20px" id="XMLID_1022_" fill="#ff9811"/><rect x="210px" y="175px" width="160px" height="20px" id="XMLID_1023_" fill="#ffad41"/></g><g transform="matrix(0.23999999463558197 0 0 0.23999999463558197 229 165)" id="L1_5"><path d="M25,150 45,240 205,240 225,150 125,140z" id="XMLID_1120_" fill="#ff5023"/><path d="M125,150 25,150 45,240 125,240z" id="XMLID_1121_" fill="#bd3c1a"/><g id="XMLID_1122_"><path d="M85,150 95,240 155,240 165,150z" id="XMLID_1123_" fill="#ff5023"/><path d="M125,150 125,240 155,240 165,150z" id="XMLID_1124_" fill="#ff734f"/></g><path d="M220.744,137.179C223.508,129.105,225,120.061,225,110   c0-55.229-44.772-100-100-100S25,54.771,25,110c0,10.061,1.492,19.105,4.256,27.179H220.744z" id="XMLID_1125_" fill="#bd720d"/><path d="M250,125c0,13.807-11.193,25-25,25H25c-13.807,0-25-11.193-25-25l0,0   c0-13.807,11.193-25,25-25h200C238.807,100,250,111.193,250,125L250,125z" id="XMLID_1126_" fill="#ffe98f"/><path d="M125,100H25c-13.807,0-25,11.193-25,25s11.193,25,25,25h100V100z" id="XMLID_1127_" fill="#ffda44"/><path d="M125,10c-51.854,0-94.486,39.467-99.504,90H35c8.284,0,15,6.716,15,15v45   c0,8.284,6.716,15,15,15s15-6.716,15-15v-40c0-8.284,6.716-15,15-15s15,6.716,15,15v30c0,8.284,6.716,15,15,15s15-6.716,15-15v-30   c0-8.284,6.716-15,15-15s15,6.716,15,15v40c0,8.284,6.716,15,15,15s15-6.716,15-15v-45c0-8.284,6.716-15,15-15h9.504   C219.486,49.467,176.853,10,125,10z" id="XMLID_1128_" fill="#804c09"/><path d="M125,10c-51.854,0-94.486,39.467-99.504,90H35c8.284,0,15,6.716,15,15v45   c0,8.284,6.716,15,15,15s15-6.716,15-15v-40c0-8.284,6.716-15,15-15s15,6.716,15,15v30c0,8.284,6.716,15,15,15   C125,153.75,125,19.327,125,10z" id="XMLID_1129_" fill="#402604"/><circle cx="175" cy="70" r="10" id="XMLID_1130_" fill="#ff5023"/><circle cx="75" cy="70" r="10" id="XMLID_1131_" fill="#64c37d"/><circle cx="125" cy="40" r="10" id="XMLID_1132_" fill="#ff9811"/></g><g transform="matrix(0.1538461595773697 0 0 0.1538461595773697 -23 220)" id="L1_6"><path d="M368.4,195c30-20,20-60,20-60c-60,0-80,60-80,60s20,60,80,60   C388.4,255,398.4,215,368.4,195z" id="XMLID_860_" fill="#91dc5a"/><path d="M110,115c0,0,20-50,110-40v60L110,115z" id="XMLID_861_" fill="#64c37d"/><path d="M110,275c0,0,20,50,110,40v-60L110,275z" id="XMLID_862_" fill="#64c37d"/><path d="M330,195c0,0-60,90-160,90C40,285,0,195,0,195s40-90,170-90   C270,105,330,195,330,195z" id="XMLID_863_" fill="#c2fb3b"/><path d="M190,106.226c-6.477-0.789-13.141-1.226-20-1.226C40,105,0,195,0,195s40,90,170,90   c6.859,0,13.523-0.437,20-1.226V106.226z" id="XMLID_864_" fill="#91dc5a"/><circle cx="90" cy="195" r="30" id="XMLID_865_" fill="#fff6d2"/><circle cx="90" cy="195" r="15" id="XMLID_866_"/><path d="M240,195c0,27.614-22.386,50-50,50v-50C190,195,216.192,195,240,195z" id="XMLID_15_" fill="#64c37d"/></g><g transform="matrix(0.17142857611179352 0 0 0.17142857611179352 74 17)" id="L1_7"><path d="M225,90c0,8.284-6.716,15-15,15H60c-8.284,0-15-6.716-15-15l0,0   c0-8.284,6.716-15,15-15h150C218.284,75,225,81.716,225,90L225,90z" id="XMLID_973_" fill="#acabb1"/><path d="M95,75H60c-8.284,0-15,6.716-15,15s6.716,15,15,15h35V75z" id="XMLID_974_" fill="#bd3c1a"/><path d="M215,90l-5-35c-19.33,0-35,15.67-35,35s15.67,35,35,35L215,90z" id="XMLID_975_" fill="#cdcdd0"/><path d="M265,225 205,225 205,55 235,55 265,145z" id="XMLID_976_" fill="#ffda44"/><path d="M257.94,260c4.546-10.759,7.06-22.586,7.06-35c0-49.706-40.294-90-90-90   s-90,40.294-90,90c0,12.414,2.514,24.241,7.06,35H257.94z" id="XMLID_977_" fill="#ffda44"/><path d="M175,260c0-22.923,0-45,0-125c-49.706,0-90,40.294-90,90   c0,12.414,2.514,24.241,7.06,35H175z" id="XMLID_978_" fill="#ffad41"/><path d="M223.719,260C230.81,250.147,235,238.066,235,225c0-33.137-26.863-60-60-60   s-60,26.863-60,60c0,13.066,4.189,25.147,11.281,35H223.719z" id="XMLID_979_" fill="#ffe98f"/><circle cx="175" cy="225" r="30" id="XMLID_980_" fill="#ffda44"/><path d="M175,255c-16.568,0-30-13.432-30-30s13.432-30,30-30" id="XMLID_981_" fill="#ffad41"/><circle cx="85" cy="225" r="40" id="XMLID_982_" fill="#bd3c1a"/><circle cx="265" cy="225" r="40" id="XMLID_983_" fill="#ff5023"/><path d="M335,225H15c-8.284,0-15,6.716-15,15s6.716,15,15,15h10c0,22.091,17.909,40,40,40   h220c22.091,0,40-17.909,40-40h10c8.284,0,15-6.716,15-15S343.284,225,335,225z" id="XMLID_984_" fill="#91dc5a"/><path d="M175,225H15c-8.284,0-15,6.716-15,15s6.716,15,15,15h10c0,22.091,17.909,40,40,40   h110V225z" id="XMLID_985_" fill="#64c37d"/><path d="M235,55v95c0,8.284,6.716,15,15,15s15-6.716,15-15V55H235z" id="XMLID_986_" fill="#ffe98f"/></g><g transform="matrix(0.1818181872367859 0 0 0.1818181872367859 7 12)" id="L1_19"><path d="M200,120V46c0,0-69.667,0.016-70,0.025V120l-39,60v116c0,18.777,15.223,34,34,34   h80c18.777,0,34-15.223,34-34V179L200,120z" id="XMLID_1558_" fill="#ff5023"/><path d="M165,46.008c-21.789,0.005-34.816,0.012-35,0.018V120l-39,60v116   c0,18.777,15.223,34,34,34h40V46.008z" id="XMLID_1559_" fill="#bd3c1a"/><path d="M215,215c0,0.416-20,75-20,75h-60l-20-75c0,0,12.5-25,50-25S215,214.584,215,215z" id="XMLID_1560_" fill="#ffffff"/><path d="M165,190c-37.5,0-50,25-50,25l20,75h30C165,290,165,202.668,165,190z" id="XMLID_1561_" fill="#ffe98f"/><rect x="130px" y="0px" width="70px" height="50px" id="XMLID_1562_" fill="#dedde0"/><rect x="130px" y="0px" width="35px" height="50px" id="XMLID_1563_" fill="#cdcdd0"/><rect x="130px" y="15px" width="70px" height="20px" id="XMLID_1564_" fill="#acabb1"/><g id="XMLID_1565_"><circle cx="165" cy="84" r="20" id="XMLID_1566_" fill="#ffffff"/><path d="M165,104.834c-11.046,0-20-8.955-20-20c0-11.047,8.954-20,20-20" id="XMLID_1567_" fill="#ffe98f"/></g></g><g transform="matrix(0.2142857164144516 0 0 0.2142857164144516 269 305)" id="L1_20"><path d="M216,60h-1V30H65v30h-1c-18.777,0-34,15.223-34,34v46h220V94   C250,75.223,234.777,60,216,60z" id="XMLID_1417_" fill="#eeeeef"/><path d="M140,30H65v30h-1c-18.777,0-34,15.223-34,34v46h110V30z" id="XMLID_1418_" fill="#dedde0"/><path d="M140,120H30v126c0,18.777,15.223,34,34,34h152c18.777,0,34-15.223,34-34V120H140z" id="XMLID_1419_" fill="#ffad41"/><path d="M140,120H30v126c0,18.777,15.223,34,34,34h76V120z" id="XMLID_1420_" fill="#ff9811"/><path d="M118.35,237.5 96.698,200 118.35,162.5 161.65,162.5 183.302,200    161.65,237.5z" id="XMLID_1421_" fill="#ffffff"/><path d="M118.35,237.5 96.698,200 118.35,162.5 140,162.5 140,237.5z" id="XMLID_1422_" fill="#ffe98f"/><path d="M220,0h-35l-45,40h80c11.046,0,20-8.954,20-20S231.046,0,220,0z" id="XMLID_1423_" fill="#bd720d"/><path d="M95,0H60C48.954,0,40,8.954,40,20s8.954,20,20,20h80L95,0z" id="XMLID_1424_" fill="#804c09"/><path d="M95,0v85c0,8.284,6.716,15,15,15s15-6.716,15-15V55c0-8.284,6.716-15,15-15   s15,6.716,15,15v15c0,8.284,6.716,15,15,15s15-6.716,15-15v-5c0-8.284,0-65,0-65H95z" id="XMLID_1425_" fill="#ffad41"/><path d="M140,0H95v85c0,8.284,6.716,15,15,15s15-6.716,15-15V55c0-8.284,6.716-15,15-15   C140.506,40,140,0,140,0z" id="XMLID_1426_" fill="#ff9811"/></g></defs><g fi:class="KUsePattern"><pattern id="pattern_L1_0" width="350" height="350" patternUnits="userSpaceOnUse"><use xlink:href="#L1_0" x="-350" y="-350"/><use xlink:href="#L1_0" x="0" y="-350"/><use xlink:href="#L1_0" x="350" y="-350"/><use xlink:href="#L1_0" x="-350" y="0"/><use xlink:href="#L1_0" x="0" y="0"/><use xlink:href="#L1_0" x="350" y="0"/><use xlink:href="#L1_0" x="-350" y="350"/><use xlink:href="#L1_0" x="0" y="350"/><use xlink:href="#L1_0" x="350" y="350"/></pattern><rect x="0" y="0" width="100%" height="100%" fill="url(#pattern_L1_0)"/></g><g fi:class="KUsePattern"><pattern id="pattern_L1_1" width="350" height="350" patternUnits="userSpaceOnUse"><use xlink:href="#L1_1" x="-350" y="-350"/><use xlink:href="#L1_1" x="0" y="-350"/><use xlink:href="#L1_1" x="350" y="-350"/><use xlink:href="#L1_1" x="-350" y="0"/><use xlink:href="#L1_1" x="0" y="0"/><use xlink:href="#L1_1" x="350" y="0"/><use xlink:href="#L1_1" x="-350" y="350"/><use xlink:href="#L1_1" x="0" y="350"/><use xlink:href="#L1_1" x="350" y="350"/></pattern><rect x="0" y="0" width="100%" height="100%" fill="url(#pattern_L1_1)"/></g><g fi:class="KUsePattern"><pattern id="pattern_L1_8" width="350" height="350" patternUnits="userSpaceOnUse"><use xlink:href="#L1_8" x="-350" y="-350"/><use xlink:href="#L1_8" x="0" y="-350"/><use xlink:href="#L1_8" x="350" y="-350"/><use xlink:href="#L1_8" x="-350" y="0"/><use xlink:href="#L1_8" x="0" y="0"/><use xlink:href="#L1_8" x="350" y="0"/><use xlink:href="#L1_8" x="-350" y="350"/><use xlink:href="#L1_8" x="0" y="350"/><use xlink:href="#L1_8" x="350" y="350"/></pattern><rect x="0" y="0" width="100%" height="100%" fill="url(#pattern_L1_8)"/></g><g fi:class="KUsePattern"><pattern id="pattern_L1_3" width="350" height="350" patternUnits="userSpaceOnUse"><use xlink:href="#L1_3" x="-350" y="-350"/><use xlink:href="#L1_3" x="0" y="-350"/><use xlink:href="#L1_3" x="350" y="-350"/><use xlink:href="#L1_3" x="-350" y="0"/><use xlink:href="#L1_3" x="0" y="0"/><use xlink:href="#L1_3" x="350" y="0"/><use xlink:href="#L1_3" x="-350" y="350"/><use xlink:href="#L1_3" x="0" y="350"/><use xlink:href="#L1_3" x="350" y="350"/></pattern><rect x="0" y="0" width="100%" height="100%" fill="url(#pattern_L1_3)"/></g><g fi:class="KUsePattern"><pattern id="pattern_L1_4" width="350" height="350" patternUnits="userSpaceOnUse"><use xlink:href="#L1_4" x="-350" y="-350"/><use xlink:href="#L1_4" x="0" y="-350"/><use xlink:href="#L1_4" x="350" y="-350"/><use xlink:href="#L1_4" x="-350" y="0"/><use xlink:href="#L1_4" x="0" y="0"/><use xlink:href="#L1_4" x="350" y="0"/><use xlink:href="#L1_4" x="-350" y="350"/><use xlink:href="#L1_4" x="0" y="350"/><use xlink:href="#L1_4" x="350" y="350"/></pattern><rect x="0" y="0" width="100%" height="100%" fill="url(#pattern_L1_4)"/></g><g fi:class="KUsePattern"><pattern id="pattern_L1_5" width="350" height="350" patternUnits="userSpaceOnUse"><use xlink:href="#L1_5" x="-350" y="-350"/><use xlink:href="#L1_5" x="0" y="-350"/><use xlink:href="#L1_5" x="350" y="-350"/><use xlink:href="#L1_5" x="-350" y="0"/><use xlink:href="#L1_5" x="0" y="0"/><use xlink:href="#L1_5" x="350" y="0"/><use xlink:href="#L1_5" x="-350" y="350"/><use xlink:href="#L1_5" x="0" y="350"/><use xlink:href="#L1_5" x="350" y="350"/></pattern><rect x="0" y="0" width="100%" height="100%" fill="url(#pattern_L1_5)"/></g><g fi:class="KUsePattern"><pattern id="pattern_L1_6" width="350" height="350" patternUnits="userSpaceOnUse"><use xlink:href="#L1_6" x="-350" y="-350"/><use xlink:href="#L1_6" x="0" y="-350"/><use xlink:href="#L1_6" x="350" y="-350"/><use xlink:href="#L1_6" x="-350" y="0"/><use xlink:href="#L1_6" x="0" y="0"/><use xlink:href="#L1_6" x="350" y="0"/><use xlink:href="#L1_6" x="-350" y="350"/><use xlink:href="#L1_6" x="0" y="350"/><use xlink:href="#L1_6" x="350" y="350"/></pattern><rect x="0" y="0" width="100%" height="100%" fill="url(#pattern_L1_6)"/></g><g fi:class="KUsePattern"><pattern id="pattern_L1_7" width="350" height="350" patternUnits="userSpaceOnUse"><use xlink:href="#L1_7" x="-350" y="-350"/><use xlink:href="#L1_7" x="0" y="-350"/><use xlink:href="#L1_7" x="350" y="-350"/><use xlink:href="#L1_7" x="-350" y="0"/><use xlink:href="#L1_7" x="0" y="0"/><use xlink:href="#L1_7" x="350" y="0"/><use xlink:href="#L1_7" x="-350" y="350"/><use xlink:href="#L1_7" x="0" y="350"/><use xlink:href="#L1_7" x="350" y="350"/></pattern><rect x="0" y="0" width="100%" height="100%" fill="url(#pattern_L1_7)"/></g><g fi:class="KUsePattern"><pattern id="pattern_L1_19" width="350" height="350" patternUnits="userSpaceOnUse"><use xlink:href="#L1_19" x="-350" y="-350"/><use xlink:href="#L1_19" x="0" y="-350"/><use xlink:href="#L1_19" x="350" y="-350"/><use xlink:href="#L1_19" x="-350" y="0"/><use xlink:href="#L1_19" x="0" y="0"/><use xlink:href="#L1_19" x="350" y="0"/><use xlink:href="#L1_19" x="-350" y="350"/><use xlink:href="#L1_19" x="0" y="350"/><use xlink:href="#L1_19" x="350" y="350"/></pattern><rect x="0" y="0" width="100%" height="100%" fill="url(#pattern_L1_19)"/></g><g fi:class="KUsePattern"><pattern id="pattern_L1_20" width="350" height="350" patternUnits="userSpaceOnUse"><use xlink:href="#L1_20" x="-350" y="-350"/><use xlink:href="#L1_20" x="0" y="-350"/><use xlink:href="#L1_20" x="350" y="-350"/><use xlink:href="#L1_20" x="-350" y="0"/><use xlink:href="#L1_20" x="0" y="0"/><use xlink:href="#L1_20" x="350" y="0"/><use xlink:href="#L1_20" x="-350" y="350"/><use xlink:href="#L1_20" x="0" y="350"/><use xlink:href="#L1_20" x="350" y="350"/></pattern><rect x="0" y="0" width="100%" height="100%" fill="url(#pattern_L1_20)"/></g></svg>